<svg xmlns="http://www.w3.org/2000/svg" viewBox="0 0 363.6 219.9" fill="currentColor">
  <g transform="translate(10.00,172.30) scale(0.1500,-0.1500)">
    <path d="M395 533Q469 533 519.0 471.5Q569 410 569 282Q569 169 537.0 104.0Q505 39 452.0 12.5Q399 -14 336 -14Q302 -14 274 -10Q258 -8 243 -2Q210 12 175.5 13.0Q141 14 113.0 6.0Q85 -2 70 -16L56 -6Q61 8 62.0 21.5Q63 35 63 49V662Q63 707 51.0 728.5Q39 750 7 750V771Q39 768 69 768Q119 768 162.5 771.5Q206 775 243 782V458Q266 496 305.0 514.5Q344 533 395 533ZM243 18Q251 14 260 11Q276 6 290 6Q337 6 359.5 69.0Q382 132 382 259Q382 348 373.0 396.0Q364 444 349.0 462.5Q334 481 315 481Q287 481 265.0 461.0Q243 441 243 409Z"/>
  </g>
  <g transform="translate(100.15,172.30) scale(0.1500,-0.1500)">
    <path d="M254 782V93Q254 51 266.5 36.0Q279 21 310 21V0Q290 1 250.0 2.5Q210 4 168 4Q126 4 83.0 2.5Q40 1 18 0V21Q49 21 61.5 36.0Q74 51 74 93V662Q74 707 62.0 728.5Q50 750 18 750V771Q50 768 80 768Q130 768 173.5 771.5Q217 775 254 782Z"/>
  </g>
  <g transform="translate(149.35,172.30) scale(0.1500,-0.1500)">
    <path d="M156 -7Q109 -7 79.0 11.0Q49 29 35.5 58.0Q22 87 22 119Q22 161 41.0 187.5Q60 214 90.5 230.5Q121 247 155.0 258.0Q189 269 219.5 279.5Q250 290 269.0 304.5Q288 319 288 342V431Q288 447 282.5 466.0Q277 485 262.0 499.0Q247 513 217 513Q201 513 186.5 508.5Q172 504 161 496Q196 483 212.0 459.5Q228 436 228 408Q228 368 200.0 345.0Q172 322 134 322Q94 322 72.0 347.0Q50 372 50 409Q50 440 65.5 461.5Q81 483 112 501Q142 518 184.0 525.5Q226 533 272 533Q321 533 363.0 523.5Q405 514 435 483Q456 461 462.0 428.0Q468 395 468 343V75Q468 50 471.5 41.0Q475 32 484 32Q492 32 499.5 37.0Q507 42 514 47L524 30Q502 11 469.5 2.0Q437 -7 401 -7Q358 -7 334.5 3.5Q311 14 301.5 31.5Q292 49 291 69Q270 36 238.5 14.5Q207 -7 156 -7ZM251 73Q262 73 270.5 76.5Q279 80 288 90V301Q281 288 269.5 275.5Q258 263 246.0 250.0Q234 237 223.5 222.0Q213 207 206.5 187.5Q200 168 200 142Q200 104 214.5 88.5Q229 73 251 73Z"/>
  </g>
  <g transform="translate(229.00,172.30) scale(0.1500,-0.1500)">
    <path d="M386 533Q422 533 442.0 517.5Q462 502 470.0 478.5Q478 455 478 432Q478 387 452.5 360.5Q427 334 386 334Q342 334 319.5 354.0Q297 374 297 406Q297 440 311.5 462.0Q326 484 348 499Q330 499 316 492Q304 487 293.0 478.0Q282 469 274.0 457.5Q266 446 261.5 432.0Q257 418 257 403V103Q257 55 277.0 38.0Q297 21 343 21V0Q320 1 274.5 2.5Q229 4 181 4Q136 4 90.0 2.5Q44 1 21 0V21Q52 21 64.5 36.0Q77 51 77 93V410Q77 455 65.0 476.5Q53 498 21 498V519Q53 516 83 516Q133 516 176.5 519.5Q220 523 257 530V458Q270 484 289.0 500.5Q308 517 332.5 525.0Q357 533 386 533Z"/>
  </g>
  <g transform="translate(301.15,172.30) scale(0.1500,-0.1500)">
    <path d="M252 681V519H350V499H252V84Q252 65 259.0 56.5Q266 48 282 48Q293 48 308.0 54.5Q323 61 336 77L351 65Q330 29 295.5 7.5Q261 -14 209 -14Q176 -14 149.5 -5.5Q123 3 106 20Q84 42 78.0 74.5Q72 107 72 159V499H-4V519H72V637Q125 637 168.5 647.5Q212 658 252 681Z"/>
  </g>
</svg>